<?xml version="1.0" standalone="no"?>
<!DOCTYPE svg PUBLIC "-//W3C//DTD SVG 20010904//EN"
 "http://www.w3.org/TR/2001/REC-SVG-20010904/DTD/svg10.dtd">
<svg version="1.0" xmlns="http://www.w3.org/2000/svg"
 width="320.000000pt" height="320.000000pt" viewBox="0 0 320.000000 320.000000"
 preserveAspectRatio="xMidYMid meet">
<metadata>
Created by potrace 1.14, written by Peter Selinger 2001-2017
</metadata>
<g transform="translate(0.000000,320.000000) scale(0.100000,-0.100000)"
fill="#000000" stroke="none">
<path d="M2129 3078 c-12 -13 -19 -18 -16 -12 4 7 -4 11 -22 10 -16 -1 -27 -4
-25 -7 2 -4 -3 -10 -12 -13 -10 -4 -13 -2 -8 7 6 8 3 8 -9 -1 -9 -8 -21 -11
-27 -7 -5 3 -10 1 -10 -5 0 -6 -4 -8 -10 -5 -5 3 -10 1 -10 -4 0 -6 -6 -10
-12 -8 -7 1 -12 -3 -11 -10 1 -6 -5 -10 -15 -8 -9 1 -28 -7 -42 -19 -21 -18
-23 -19 -10 -1 9 11 0 7 -22 -10 -21 -17 -38 -34 -38 -38 0 -5 -4 -5 -10 -2
-5 3 -10 3 -10 -2 0 -4 -13 -22 -29 -39 -16 -16 -32 -40 -35 -52 -4 -12 -12
-20 -17 -17 -9 6 -11 2 -12 -32 -1 -10 -7 -22 -14 -26 -8 -5 -11 -12 -8 -18 4
-5 2 -9 -3 -9 -5 0 -8 -12 -6 -27 1 -15 -2 -34 -7 -43 -9 -13 -10 -12 -5 3 3
10 2 16 -3 12 -5 -3 -16 1 -24 9 -8 8 -18 12 -21 8 -4 -3 -4 2 0 13 4 11 4 17
0 13 -4 -3 -25 11 -47 32 -37 36 -105 77 -121 72 -5 -1 -8 6 -8 15 0 15 -2 16
-10 3 -6 -10 -10 -11 -10 -2 0 6 -9 12 -20 12 -11 0 -20 4 -20 8 0 9 -14 12
-67 14 -18 1 -30 5 -28 9 3 4 -2 9 -10 13 -8 3 -15 0 -15 -6 0 -7 -4 -7 -13 1
-8 6 -17 8 -20 4 -4 -3 -7 0 -7 8 0 11 -2 11 -10 -1 -5 -8 -10 -10 -10 -4 0 9
-34 11 -59 5 -2 -1 3 -9 10 -18 8 -10 9 -14 2 -10 -6 4 -15 2 -19 -5 -4 -7 -4
-10 1 -6 4 4 14 0 22 -10 8 -9 12 -11 8 -4 -3 6 -1 12 4 12 6 0 11 -5 11 -11
0 -5 4 -8 9 -4 5 3 12 1 16 -5 4 -7 12 -7 25 0 13 7 21 7 25 0 3 -5 17 -10 31
-10 13 0 24 -5 24 -11 0 -5 4 -8 9 -4 5 3 12 1 15 -4 3 -5 15 -7 26 -4 11 3
20 0 20 -6 0 -6 9 -11 20 -11 11 0 20 -4 20 -10 0 -5 11 -10 25 -10 14 0 25
-4 25 -9 0 -5 9 -11 21 -14 13 -4 18 -10 13 -18 -4 -7 -3 -10 4 -5 11 6 52
-30 52 -46 0 -5 4 -7 8 -4 4 2 13 -4 20 -15 9 -13 9 -19 1 -19 -6 0 -8 -7 -5
-16 6 -14 4 -15 -10 -3 -21 17 -54 19 -47 3 3 -9 -2 -12 -17 -9 -13 2 -25 7
-28 10 -3 3 -14 -3 -24 -12 -18 -16 -18 -16 -12 3 7 17 6 17 -9 5 -10 -8 -20
-11 -24 -8 -3 4 -12 -1 -20 -11 -8 -9 -12 -11 -8 -4 4 7 -1 12 -12 12 -11 0
-25 -6 -32 -12 -11 -11 -12 -10 -6 2 8 13 6 13 -7 2 -9 -7 -20 -12 -24 -11
-21 3 -35 -2 -29 -11 3 -5 1 -10 -4 -10 -6 0 -11 5 -11 11 0 8 -4 8 -12 2 -7
-6 -23 -9 -35 -8 -12 1 -19 -3 -17 -10 4 -10 -13 -15 -63 -18 -12 0 -20 -4
-18 -7 2 -3 -8 -10 -21 -17 -14 -6 -21 -7 -18 -1 4 6 -2 6 -14 -1 -12 -6 -24
-16 -27 -21 -3 -6 -15 -10 -26 -10 -10 0 -19 -4 -19 -8 0 -5 -18 -15 -40 -22
-22 -7 -40 -17 -40 -22 0 -4 -7 -8 -15 -8 -8 0 -15 -3 -15 -8 0 -4 -16 -16
-35 -26 -19 -10 -32 -23 -28 -29 4 -6 1 -7 -6 -3 -7 5 -21 0 -32 -10 -11 -11
-30 -28 -42 -40 -12 -11 -34 -29 -49 -38 -15 -10 -25 -22 -22 -27 5 -8 -9 -13
-28 -10 -5 0 -7 -5 -5 -12 1 -6 -4 -11 -11 -9 -6 1 -11 -1 -11 -5 3 -20 -2
-34 -11 -28 -5 3 -10 2 -10 -4 0 -6 -13 -24 -30 -41 -16 -16 -26 -30 -22 -30
4 0 -4 -10 -18 -21 -14 -11 -18 -18 -10 -14 8 4 4 -3 -9 -14 -13 -12 -19 -21
-15 -21 5 0 1 -5 -9 -11 -9 -6 -15 -14 -12 -20 4 -5 -1 -12 -9 -15 -9 -3 -16
-14 -16 -23 -1 -21 -25 -53 -34 -44 -4 4 -4 -1 0 -10 4 -11 0 -25 -10 -36 -9
-10 -13 -21 -9 -24 3 -4 1 -7 -6 -7 -7 0 -10 -4 -6 -9 3 -5 -2 -17 -11 -25
-11 -12 -12 -16 -2 -16 10 0 10 -2 -1 -9 -7 -5 -11 -13 -8 -17 7 -12 -19 -35
-29 -26 -5 4 -4 1 3 -7 8 -10 8 -21 -3 -47 -8 -19 -12 -34 -9 -34 3 0 0 -10
-8 -22 -7 -13 -12 -41 -12 -63 1 -22 -3 -46 -8 -52 -6 -9 -5 -13 4 -13 11 0
11 -2 0 -9 -8 -5 -16 -17 -17 -25 -1 -9 2 -14 7 -10 5 3 9 1 9 -5 0 -5 -6 -12
-12 -14 -10 -4 -9 -8 2 -16 12 -8 12 -11 1 -11 -11 0 -11 -3 0 -17 8 -9 9 -14
3 -10 -7 4 -11 -9 -12 -38 -2 -30 2 -45 10 -45 10 0 10 -2 1 -8 -7 -4 -10 -21
-8 -37 2 -17 4 -34 4 -38 1 -5 6 -5 11 -2 6 3 10 1 10 -4 0 -6 -4 -11 -9 -11
-11 0 -8 -26 4 -37 4 -4 5 -2 0 6 -5 10 -4 12 4 7 6 -4 8 -13 4 -19 -10 -17
-11 -47 -1 -41 4 3 8 0 8 -5 0 -6 -5 -11 -12 -11 -6 0 -3 -7 8 -16 10 -8 13
-13 7 -9 -9 4 -11 1 -7 -9 3 -9 11 -13 17 -9 6 3 7 1 3 -6 -4 -6 -2 -18 4 -26
9 -11 10 -18 1 -28 -8 -11 -6 -18 9 -32 12 -10 18 -25 16 -32 -3 -8 1 -16 9
-19 8 -4 12 -10 10 -15 -3 -4 6 -31 20 -58 14 -28 25 -58 25 -68 0 -16 2 -16
11 -3 9 12 10 11 6 -8 -3 -12 -1 -20 4 -16 5 3 9 -2 9 -10 0 -8 6 -21 13 -28
7 -7 24 -29 37 -48 13 -19 32 -44 42 -54 10 -11 18 -24 18 -28 0 -5 5 -6 10
-3 6 4 10 3 9 -2 -4 -21 2 -33 16 -33 8 0 15 -5 15 -11 0 -13 78 -89 92 -89 5
0 6 -5 2 -12 -5 -8 -2 -9 9 -5 11 4 17 1 17 -9 0 -8 11 -20 25 -26 14 -6 25
-14 25 -18 0 -4 9 -10 21 -13 12 -3 18 -10 14 -16 -3 -7 0 -8 9 -5 9 3 16 2
16 -4 0 -5 11 -13 25 -16 14 -4 23 -11 20 -16 -3 -5 6 -12 20 -16 14 -3 25
-11 25 -17 0 -6 3 -7 7 -4 3 4 14 0 24 -9 10 -9 29 -17 44 -18 14 0 23 -6 21
-13 -3 -6 3 -10 12 -9 9 2 22 -4 28 -12 6 -8 24 -16 40 -18 52 -6 65 -10 75
-25 7 -12 9 -12 9 1 1 12 3 11 11 -3 6 -9 15 -15 20 -11 5 3 17 0 26 -8 14
-11 16 -11 8 2 -6 10 -2 9 12 -3 14 -13 23 -15 28 -7 5 8 11 8 21 -1 7 -6 21
-9 29 -5 8 3 15 1 15 -3 0 -5 -6 -11 -12 -14 -7 -3 1 -4 17 -3 17 1 36 6 44
10 10 6 12 5 7 -3 -6 -9 46 -11 214 -11 165 1 222 4 226 14 3 7 21 12 44 11
22 -1 40 4 40 9 0 6 5 4 10 -4 6 -10 10 -11 10 -2 0 6 9 12 21 12 13 0 18 4
13 12 -5 8 0 7 11 -2 10 -8 16 -10 12 -4 -4 7 0 15 9 18 21 8 26 8 20 -3 -3
-4 10 -1 28 8 19 9 32 19 29 23 -2 4 3 5 12 2 18 -7 67 15 60 27 -3 4 8 6 24
5 17 -1 28 1 26 4 -2 3 5 12 17 19 11 7 17 8 14 2 -4 -7 -1 -9 8 -5 8 3 17 12
20 20 3 8 12 14 20 14 9 0 25 10 37 23 12 12 18 15 14 7 -5 -8 4 -4 18 9 15
14 27 20 27 15 0 -5 5 -2 10 6 5 8 10 10 10 5 0 -6 9 -11 20 -11 11 0 20 4 20
9 0 4 5 5 10 2 6 -3 13 1 16 9 3 9 10 13 15 10 6 -3 16 0 24 6 11 9 15 9 15 1
0 -6 9 -3 20 7 12 9 24 17 28 17 10 0 85 76 110 111 12 17 18 35 14 39 -4 5
-2 5 5 1 7 -4 17 3 24 16 7 12 18 29 26 36 7 8 11 18 8 23 -4 5 -1 9 5 9 6 0
8 4 5 10 -3 6 -2 10 3 10 9 0 20 26 18 41 -1 4 10 17 24 29 14 12 18 18 10 14
-13 -7 -13 -5 -1 9 7 9 17 14 22 11 5 -3 6 3 2 12 -4 12 -3 15 5 10 8 -5 10
-2 6 8 -3 9 -1 16 5 16 6 0 11 7 11 15 0 8 8 15 18 15 13 0 14 2 4 9 -7 4 -12
14 -10 21 2 8 -4 14 -13 15 -18 0 -51 -30 -42 -39 3 -3 -2 -8 -11 -12 -9 -3
-16 -11 -16 -16 0 -5 -9 -23 -21 -39 -11 -16 -17 -29 -13 -29 4 0 -5 -11 -20
-25 -15 -14 -24 -25 -20 -25 3 0 1 -6 -5 -13 -6 -8 -8 -17 -4 -20 3 -4 0 -7
-7 -7 -7 0 -11 -3 -7 -6 3 -3 -6 -17 -21 -31 -15 -14 -26 -29 -24 -34 1 -5 -5
-9 -14 -9 -8 0 -12 -4 -9 -10 3 -5 3 -10 -2 -11 -4 0 -16 -2 -26 -4 -9 -2 -15
1 -11 6 3 5 0 9 -6 9 -6 0 -5 11 5 30 9 16 20 30 26 30 6 0 9 7 5 15 -3 8 0
14 7 12 7 -1 11 4 9 11 -1 7 5 15 13 18 8 4 15 12 15 20 0 8 5 14 12 14 6 0 9
3 5 6 -5 5 10 27 41 60 7 8 10 14 6 14 -4 0 3 11 16 25 13 14 20 25 16 25 -4
0 -1 6 6 14 7 8 17 11 22 8 5 -3 6 0 2 7 -4 6 0 14 9 17 14 6 14 8 -2 21 -10
8 -11 11 -3 7 13 -7 13 -5 1 9 -12 16 -16 14 -47 -20 -19 -21 -41 -45 -48 -53
-8 -8 -16 -22 -18 -30 -3 -14 -7 -20 -35 -54 -7 -8 -13 -22 -13 -31 0 -9 -3
-14 -7 -12 -9 5 -40 -24 -35 -33 2 -3 -5 -14 -16 -25 -11 -11 -22 -29 -26 -41
-4 -14 -14 -21 -31 -20 -14 1 -25 4 -25 9 0 4 0 13 0 21 0 8 11 24 25 37 13
13 25 30 25 37 0 6 5 12 12 12 6 0 8 3 5 6 -3 4 7 19 23 34 16 15 27 30 23 33
-3 4 2 9 11 13 9 3 16 12 16 19 0 8 13 27 30 43 16 16 27 32 24 35 -3 3 4 10
15 16 13 7 18 17 14 28 -5 12 -3 14 8 8 12 -8 12 -6 0 8 -18 22 -30 21 -61 -4
-14 -11 -18 -17 -10 -13 9 4 7 -2 -5 -14 -34 -35 -46 -52 -39 -52 4 0 -3 -9
-16 -20 -13 -11 -20 -20 -17 -20 3 0 -4 -11 -16 -24 -35 -38 -47 -55 -47 -63
0 -5 -8 -16 -17 -24 -10 -9 -28 -28 -41 -43 -18 -22 -26 -25 -42 -16 -26 14
-25 21 7 56 15 16 26 32 25 37 -1 4 5 7 13 7 9 0 12 6 8 17 -4 11 -3 14 5 9 7
-4 12 -2 12 4 0 6 11 21 25 34 14 13 25 27 25 32 0 5 14 23 30 41 17 18 30 36
30 41 0 5 10 17 23 26 12 9 15 14 7 10 -12 -6 -13 -4 -2 7 17 18 15 32 -4 25
-8 -3 -12 -2 -9 4 13 21 -6 9 -42 -27 -21 -20 -31 -33 -23 -28 8 4 0 -5 -17
-22 -18 -16 -33 -35 -33 -41 0 -6 -9 -16 -19 -22 -11 -5 -23 -19 -26 -30 -4
-11 -11 -18 -16 -15 -5 4 -9 2 -9 -2 0 -11 -26 -45 -62 -83 -19 -19 -24 -30
-15 -33 7 -4 6 -6 -4 -6 -9 -1 -36 -31 -60 -69 -24 -37 -47 -69 -52 -70 -4 -2
-5 -8 -1 -13 19 -31 -39 -83 -99 -88 -5 -1 -6 -5 -3 -9 2 -4 -11 -7 -29 -7
-19 1 -32 -1 -30 -5 2 -3 -9 -11 -26 -17 -19 -8 -29 -8 -29 -1 0 6 -6 6 -15
-2 -8 -6 -19 -9 -25 -5 -5 3 -10 1 -10 -5 0 -6 -4 -8 -10 -5 -5 3 -10 0 -11
-7 0 -7 -4 -4 -9 7 -8 19 -9 19 -9 1 -1 -15 -4 -16 -15 -7 -10 8 -16 9 -21 1
-3 -6 -11 -8 -16 -5 -5 4 -9 0 -9 -7 0 -10 -2 -10 -8 -1 -5 8 -13 9 -22 3 -19
-12 -33 -13 -26 -1 3 4 -6 6 -19 3 -14 -2 -22 -9 -19 -14 4 -6 -1 -5 -12 1
-11 5 -28 12 -39 16 -11 3 -15 9 -10 13 6 4 10 21 9 37 0 17 4 36 9 42 7 9 2
15 -14 22 -14 5 -25 5 -27 0 -2 -5 -8 -9 -13 -9 -6 0 -7 5 -3 12 4 6 3 8 -4 4
-6 -3 -9 -16 -6 -29 8 -35 9 -82 1 -94 -4 -6 -23 -9 -44 -6 -21 2 -48 5 -60 6
-13 0 -23 7 -23 16 0 11 -4 10 -16 -5 -8 -10 -13 -13 -9 -6 6 12 -6 16 -34 13
-7 -2 -10 2 -6 8 4 8 -2 8 -20 1 -33 -13 -38 -13 -30 0 3 6 -3 10 -14 10 -12
0 -21 4 -21 9 0 5 -11 8 -25 6 -14 -1 -25 2 -25 7 0 6 -7 7 -16 4 -8 -3 -12
-2 -9 3 3 5 -4 11 -16 13 -21 3 -37 38 -18 38 5 0 9 7 9 15 0 9 6 18 14 21 20
8 27 45 13 63 -10 12 -9 13 3 6 13 -7 13 -6 1 6 -10 11 -15 11 -18 1 -3 -6 -9
-10 -14 -6 -5 3 -9 -2 -9 -11 0 -9 -4 -14 -8 -11 -4 2 -9 -5 -9 -17 -1 -11 -9
-25 -18 -29 -8 -5 -15 -16 -15 -25 0 -9 -3 -13 -7 -10 -3 4 -12 2 -20 -4 -10
-9 -13 -8 -13 5 0 10 -4 15 -9 11 -5 -3 -12 -1 -16 5 -4 6 -11 7 -17 4 -7 -4
-8 -2 -4 4 4 7 1 12 -9 12 -9 0 -13 5 -10 10 4 6 3 10 -2 9 -12 -4 -63 23 -63
33 0 4 -10 8 -22 8 -17 0 -19 3 -9 9 11 7 9 10 -8 16 -12 3 -19 11 -16 16 3 5
-1 6 -9 3 -11 -4 -16 0 -16 10 0 9 -7 16 -15 16 -8 0 -15 7 -15 16 0 8 -4 13
-9 10 -4 -3 -20 8 -35 25 -25 28 -26 31 -11 52 8 12 15 17 15 12 0 -4 12 2 27
16 19 16 23 18 13 4 -15 -19 -15 -19 12 0 15 11 28 23 28 28 0 4 8 7 18 8 10
0 12 3 4 6 -6 2 -10 9 -7 13 3 5 -4 14 -15 20 -14 7 -20 8 -20 0 0 -6 -8 -13
-17 -17 -10 -3 -27 -13 -37 -22 -16 -13 -18 -13 -12 -1 4 8 0 6 -8 -4 -9 -11
-16 -16 -16 -11 0 5 -6 1 -13 -9 -14 -19 -47 -13 -47 10 0 8 -4 14 -9 14 -5 0
-11 9 -14 21 -3 12 -10 18 -16 14 -7 -3 -8 0 -5 9 3 9 1 16 -5 16 -6 0 -11 9
-11 21 0 13 -4 18 -12 13 -8 -5 -9 -2 -5 9 4 11 1 17 -9 17 -8 0 -13 4 -9 9 3
5 1 13 -5 16 -8 5 -7 12 2 23 8 10 9 13 1 9 -7 -4 -17 5 -27 23 -9 19 -10 28
-3 23 7 -3 4 3 -6 14 -9 11 -14 23 -10 26 3 4 2 7 -4 7 -5 0 -9 10 -8 22 1 13
-3 26 -9 30 -6 4 -12 30 -12 58 -1 27 -7 57 -14 65 -8 10 -9 15 -2 15 6 0 9 6
7 13 -4 9 14 12 73 11 43 0 87 3 98 7 10 4 13 8 6 8 -9 1 -10 6 -3 20 9 16 7
20 -14 23 -13 3 -22 2 -19 -3 7 -12 -50 -6 -58 6 -5 6 -8 6 -8 -2 0 -14 -63
-13 -76 2 -12 13 -14 46 -3 39 5 -3 9 0 9 5 0 6 -6 11 -12 11 -10 0 -9 3 1 9
11 7 11 9 0 14 -12 4 -11 7 1 16 9 7 11 14 5 19 -12 8 -12 22 0 77 5 22 8 44
7 49 -2 4 2 14 8 20 5 7 7 16 3 19 -3 4 0 14 8 23 8 10 13 20 12 23 -4 12 9
51 17 51 5 0 7 8 6 18 -2 9 2 20 8 24 6 4 11 13 11 19 0 15 33 21 41 8 3 -5
14 -9 25 -9 11 0 18 -4 15 -8 -2 -4 7 -9 22 -10 14 -1 29 -7 33 -13 5 -8 9 -8
14 0 5 9 10 9 20 1 10 -8 14 -4 17 19 3 22 1 28 -11 26 -9 -1 -20 1 -26 5 -5
5 -14 10 -20 12 -5 1 -9 6 -8 10 2 4 -4 5 -12 2 -9 -4 -22 -1 -30 6 -12 10
-15 10 -15 -1 0 -10 -3 -10 -12 -1 -15 15 -19 42 -7 42 6 0 7 5 4 10 -3 6 -1
10 5 10 6 0 8 5 5 10 -3 5 1 10 9 10 10 0 13 6 9 17 -4 11 -3 14 5 9 7 -4 12
-1 12 7 0 8 7 18 16 21 8 3 13 9 11 13 -7 11 19 33 29 25 4 -4 4 -2 1 4 -7 12
84 114 102 114 6 0 11 4 11 9 0 6 13 18 29 27 17 10 28 21 25 26 -3 4 0 8 7 8
6 0 18 8 25 18 9 11 13 13 14 4 0 -7 4 -11 8 -8 11 6 53 -40 45 -48 -3 -3 2
-8 11 -12 9 -3 16 -10 16 -16 0 -15 32 -43 52 -44 15 -1 16 1 6 14 -10 13 -10
14 0 8 17 -10 15 9 -3 24 -8 7 -13 16 -10 20 3 4 -2 10 -10 14 -8 3 -15 12
-15 21 0 8 -5 15 -11 15 -5 0 -7 5 -4 10 3 6 0 10 -8 10 -7 0 -14 7 -14 15 0
8 5 15 11 15 6 0 4 5 -4 11 -12 8 -9 10 12 6 20 -3 25 0 20 11 -3 10 -1 13 6
8 6 -3 27 3 47 14 21 12 34 15 30 8 -4 -7 0 -5 9 6 8 10 20 15 25 11 6 -3 14
1 17 10 6 13 8 14 15 3 7 -10 9 -8 9 6 0 16 2 17 17 5 14 -12 16 -12 8 0 -6
11 -4 13 8 8 10 -3 17 -2 17 2 0 5 12 8 26 6 15 -1 28 3 31 11 3 8 9 14 15 14
5 0 6 -6 3 -12 -4 -7 1 -4 9 6 9 11 16 15 16 10 0 -5 9 -10 20 -10 11 0 20 4
20 9 0 5 8 3 17 -4 11 -10 14 -10 9 -1 -5 8 -1 12 11 12 11 0 25 6 32 13 11
10 13 10 7 0 -9 -16 6 -17 22 -1 12 12 15 7 11 -18 0 -4 5 -11 13 -15 11 -7
11 -9 -1 -9 -10 0 -11 -3 -2 -13 6 -8 8 -17 4 -21 -13 -13 -10 -51 6 -64 12
-10 12 -12 1 -6 -8 4 -11 3 -7 -1 12 -14 37 -15 34 -2 -1 7 4 11 11 9 9 -2 10
3 3 16 -5 10 -6 24 -1 32 5 8 5 21 1 29 -8 15 -7 22 5 61 5 13 6 13 14 0 6 -8
10 -10 10 -5 0 6 11 11 25 11 14 1 22 -2 19 -8 -4 -6 2 -5 14 1 15 8 22 8 25
-2 4 -9 6 -9 6 1 1 6 6 12 12 12 5 0 7 -6 3 -12 -5 -9 -2 -9 9 1 11 9 17 10
17 2 0 -6 16 -11 35 -11 21 0 35 -5 35 -12 0 -9 4 -8 10 2 5 8 10 10 10 4 0
-6 16 -10 36 -9 19 0 38 -3 41 -9 4 -5 1 -6 -7 -1 -9 6 -11 4 -5 -4 5 -9 10
-10 18 -2 14 14 30 14 22 1 -4 -6 5 -10 19 -10 14 0 26 -6 26 -12 0 -9 4 -8
10 2 7 11 10 11 10 2 0 -7 5 -10 10 -7 6 3 10 1 10 -5 0 -6 5 -8 10 -5 6 3 10
1 10 -6 0 -6 8 -9 20 -6 11 3 20 2 20 -2 0 -10 49 -33 58 -27 4 2 13 -2 20
-10 7 -8 8 -14 3 -14 -6 0 -8 -7 -5 -15 4 -8 -1 -17 -10 -21 -9 -3 -16 -12
-16 -19 0 -7 -7 -16 -16 -19 -8 -3 -13 -10 -10 -15 3 -5 -1 -11 -9 -15 -8 -3
-15 -13 -15 -21 0 -9 -4 -13 -10 -10 -5 3 -10 1 -10 -4 0 -6 5 -11 11 -11 8 0
8 -4 1 -13 -9 -10 -6 -13 13 -13 14 0 25 4 25 8 0 5 12 21 28 35 15 15 20 23
12 18 -8 -4 -2 6 14 23 17 18 26 32 20 32 -5 0 0 6 11 12 11 7 22 11 24 9 2
-1 8 3 12 11 7 10 9 9 9 -4 0 -10 7 -18 15 -18 8 0 15 -5 15 -11 0 -5 4 -8 9
-4 5 3 16 -2 24 -10 9 -8 19 -15 23 -15 3 0 15 -10 25 -22 11 -11 19 -17 19
-13 0 4 11 -4 25 -19 13 -14 28 -26 32 -26 5 0 15 -9 23 -21 8 -11 32 -39 52
-61 21 -22 35 -45 31 -51 -4 -6 -1 -7 6 -3 8 5 14 0 18 -13 3 -11 9 -18 14
-15 5 3 9 1 9 -4 0 -6 6 -12 13 -15 8 -3 14 1 14 9 0 7 -5 10 -10 7 -6 -4 -8
0 -4 10 4 10 1 17 -5 17 -6 0 -8 3 -5 7 4 3 1 13 -7 22 -8 9 -16 23 -18 31 -2
8 -15 27 -30 41 -16 15 -28 30 -28 35 0 4 -18 24 -40 45 -22 21 -40 42 -40 47
0 5 -8 16 -17 23 -17 13 -17 12 -4 -6 7 -11 2 -8 -12 7 -14 15 -28 24 -31 21
-3 -4 -6 1 -6 11 0 9 -5 14 -10 11 -6 -3 -13 1 -16 9 -3 9 -10 14 -14 11 -4
-3 -11 2 -14 11 -3 8 -10 12 -16 9 -5 -3 -10 -1 -10 5 0 6 -11 15 -25 20 -14
5 -25 14 -25 20 0 6 -5 8 -12 4 -7 -5 -9 -2 -6 8 4 8 0 15 -8 15 -7 0 -10 -5
-7 -11 3 -6 -6 0 -20 13 -15 14 -27 21 -27 16 0 -4 -8 2 -19 13 -10 12 -21 19
-24 15 -4 -3 -15 1 -24 9 -30 25 -47 33 -38 17 8 -12 6 -12 -8 0 -9 7 -17 10
-17 5 0 -4 -7 1 -15 12 -9 12 -14 14 -15 6 0 -7 -5 -10 -10 -7 -6 4 -8 10 -6
14 4 7 -16 11 -61 14 -12 0 -19 5 -17 9 3 4 -9 8 -26 8 -17 0 -29 4 -26 8 2 4
-4 9 -15 9 -10 1 -19 -4 -19 -10 0 -7 -4 -6 -9 3 -6 8 -8 17 -6 20 2 4 -2 7
-10 7 -8 0 -12 -4 -9 -8 9 -16 -12 -17 -31 -2 -16 13 -17 15 -2 10 10 -4 17
-1 17 7 0 13 7 15 64 18 19 1 34 5 33 8 -1 3 2 6 7 7 5 1 13 7 17 15 7 11 9
10 9 -1 0 -9 7 -6 20 9 11 13 20 17 20 10 0 -9 6 -8 20 5 11 10 20 15 20 11 0
-4 11 5 25 19 14 14 29 25 34 25 4 0 14 11 21 25 7 13 17 22 22 19 4 -3 11 2
14 10 3 9 11 13 18 9 6 -3 8 -3 4 2 -4 4 4 22 18 40 14 19 26 43 27 54 1 12 4
21 8 21 10 0 26 44 23 63 -1 9 2 17 7 17 4 0 5 7 2 17 -4 10 -2 14 4 10 7 -4
10 0 8 10 -2 10 -4 24 -4 31 -1 10 -22 13 -86 11 -47 -1 -85 -5 -85 -9 0 -4
-7 -11 -16 -14 -14 -5 -15 -4 -4 9 19 23 3 18 -21 -7z m-1825 -1784 c3 -8 2
-12 -4 -9 -6 3 -10 10 -10 16 0 14 7 11 14 -7z m182 -46 c5 -7 2 -9 -7 -4 -8
4 -6 1 3 -7 10 -8 15 -17 12 -20 -3 -3 0 -15 6 -27 9 -17 9 -21 0 -15 -9 6 -9
3 -1 -13 6 -12 12 -32 13 -46 1 -15 5 -26 8 -26 3 0 6 -8 7 -17 1 -10 7 -31
14 -48 7 -16 11 -36 10 -42 -1 -7 2 -13 7 -13 9 0 26 -55 23 -72 0 -5 5 -7 12
-5 6 1 12 -6 12 -16 0 -10 7 -22 15 -27 8 -5 11 -10 7 -10 -8 0 3 -15 38 -52
11 -12 13 -17 5 -13 -8 5 6 -11 33 -35 26 -24 47 -50 47 -57 0 -8 5 -11 10 -8
5 3 10 -1 10 -9 0 -9 6 -15 13 -14 6 2 11 -3 9 -9 -1 -7 3 -13 9 -13 7 0 18
-8 26 -17 10 -12 12 -13 8 -3 -4 8 1 6 9 -4 9 -11 16 -24 16 -30 0 -5 3 -6 6
-3 6 6 22 -5 81 -53 7 -6 19 -10 28 -10 8 0 15 -6 15 -14 0 -8 8 -13 18 -12 9
2 24 -4 32 -13 8 -9 26 -22 39 -29 19 -11 22 -11 16 0 -3 7 1 4 9 -6 9 -11 19
-17 22 -13 4 4 12 3 18 -2 6 -5 28 -14 49 -20 20 -7 37 -17 37 -22 0 -5 11 -9
25 -9 14 0 25 -6 25 -12 0 -9 4 -8 10 2 6 10 10 11 10 3 0 -7 12 -13 26 -13
14 0 23 -4 20 -8 -2 -4 14 -8 36 -7 22 1 46 -4 52 -10 6 -6 17 -10 25 -7 8 3
11 1 8 -4 -3 -5 38 -9 90 -9 52 0 97 -3 99 -7 3 -5 13 -4 23 2 12 6 22 5 31
-3 9 -8 11 -8 6 0 -4 8 7 10 39 8 28 -1 45 2 45 9 0 7 3 7 8 1 10 -14 52 -14
52 -1 0 6 5 4 10 -4 9 -13 10 -13 10 0 0 13 1 13 10 0 8 -12 10 -12 10 -1 0 8
3 12 6 8 3 -3 23 1 44 8 27 10 41 10 49 2 7 -7 12 -5 17 7 5 14 9 15 15 4 7
-10 9 -11 9 0 0 7 5 10 10 7 6 -3 10 -2 10 4 0 6 7 7 17 4 10 -4 14 -2 10 4
-10 16 20 10 36 -6 9 -11 9 -14 -1 -18 -6 -3 -10 -9 -6 -14 3 -5 2 -9 -3 -8
-4 1 -11 0 -15 -1 -13 -4 -27 -7 -39 -9 -5 0 -7 -5 -4 -11 3 -6 -1 -7 -10 -4
-8 4 -21 2 -28 -3 -6 -4 -24 -8 -39 -7 -16 0 -28 -3 -28 -9 0 -5 -8 -3 -17 4
-14 12 -16 12 -8 0 6 -11 4 -13 -7 -8 -9 3 -21 0 -28 -6 -10 -9 -11 -9 -6 1 9
15 -10 16 -19 2 -5 -8 -12 -7 -23 2 -13 11 -15 11 -10 -3 4 -11 0 -15 -15 -13
-12 1 -22 3 -22 4 0 1 -15 2 -33 3 -17 1 -32 0 -32 -3 0 -3 -11 -6 -25 -6 -14
-1 -22 2 -19 7 3 5 -6 5 -20 -1 -17 -6 -27 -6 -32 1 -4 8 -9 7 -15 -2 -7 -12
-9 -12 -9 0 0 10 -3 11 -14 2 -8 -7 -17 -8 -20 -3 -3 5 -19 8 -36 6 -19 -2
-30 1 -30 9 0 8 -4 7 -10 -3 -5 -8 -10 -10 -10 -3 0 6 -16 12 -35 12 -74 4
-84 5 -79 13 3 4 -6 8 -20 8 -14 0 -27 4 -31 9 -3 5 -19 9 -36 9 -17 -1 -34 3
-37 8 -8 11 -49 34 -59 34 -5 0 -1 -5 7 -10 11 -7 11 -10 2 -10 -7 0 -17 10
-22 23 -5 12 -9 16 -9 8 -1 -11 -4 -11 -18 0 -9 8 -24 13 -35 11 -10 -2 -21 3
-24 12 -3 8 -12 12 -20 9 -8 -3 -14 0 -14 6 0 6 -7 11 -15 11 -8 0 -15 5 -15
11 0 5 -4 8 -9 4 -6 -3 -20 5 -32 17 -12 13 -18 16 -14 8 7 -12 6 -13 -7 -3
-8 7 -17 10 -21 7 -3 -3 -8 4 -12 15 -3 12 -15 21 -25 21 -10 0 -20 3 -22 8
-2 4 -23 23 -48 41 -25 19 -76 66 -114 105 -37 39 -73 70 -80 68 -6 -2 -8 0
-4 4 4 4 -4 20 -17 36 -14 16 -25 34 -25 39 0 6 -5 7 -10 4 -6 -4 -10 -3 -9 2
2 16 -14 53 -23 53 -6 0 -7 7 -4 16 3 9 2 12 -4 9 -6 -4 -13 7 -16 24 -4 17
-10 28 -14 26 -5 -3 -7 6 -5 20 1 16 -3 25 -11 25 -8 0 -14 7 -14 15 0 8 5 15
11 15 6 0 1 9 -12 21 -13 11 -17 17 -9 13 12 -6 13 -5 3 7 -7 9 -13 30 -15 47
-1 18 -5 32 -8 32 -3 0 -7 14 -8 31 -3 44 -6 53 -17 61 -6 5 -5 8 3 8 7 0 10
5 6 11 -3 6 0 15 7 20 19 12 26 11 35 -3z"/>
<path d="M1720 2210 c-3 -9 -8 -35 -11 -60 -2 -14 -11 -28 -19 -32 -12 -5 -12
-7 2 -7 14 -1 16 -5 8 -25 -5 -13 -6 -27 -3 -30 4 -3 0 -6 -7 -6 -10 0 -11 -3
-3 -11 6 -6 8 -22 4 -38 -3 -14 -6 -42 -6 -61 0 -19 -4 -38 -10 -42 -6 -5 -5
-8 4 -8 11 0 11 -3 1 -15 -10 -12 -10 -15 1 -15 11 0 11 -2 -1 -10 -8 -5 -11
-12 -7 -16 4 -4 -1 -17 -10 -28 -10 -12 -11 -15 -3 -8 20 17 35 15 20 -3 -12
-14 -17 -181 -6 -192 3 -3 -2 -12 -12 -20 -9 -8 -12 -12 -5 -9 6 4 14 2 18 -4
3 -5 0 -10 -7 -10 -9 0 -9 -3 2 -10 12 -8 12 -10 1 -10 -10 0 -10 -6 4 -26 9
-15 13 -24 7 -20 -5 3 -12 -3 -15 -14 -3 -11 -2 -18 3 -15 4 3 10 -2 13 -10 4
-10 1 -12 -11 -9 -14 5 -13 3 2 -10 11 -9 14 -16 8 -16 -7 0 -12 -7 -12 -15 0
-8 6 -15 13 -15 7 0 8 -3 2 -8 -15 -11 -17 -52 -2 -52 8 0 7 -4 -3 -10 -11 -7
-11 -10 -2 -10 7 0 11 -3 9 -7 -12 -20 11 -47 41 -48 18 -1 30 1 27 3 -3 3 3
11 13 19 9 8 11 11 3 7 -9 -5 -12 -3 -7 4 4 7 14 12 22 12 8 0 12 5 9 10 -3 6
-1 10 4 10 6 0 11 6 11 14 0 8 11 23 25 34 13 11 22 22 18 25 -3 4 2 9 11 13
9 3 16 11 16 16 0 5 8 17 18 26 10 10 12 13 2 7 -8 -5 0 7 18 26 18 20 32 40
31 45 -4 13 23 64 33 64 5 0 6 5 3 10 -3 6 -2 10 4 10 5 0 8 9 6 20 -2 11 -1
19 3 16 4 -2 13 2 20 10 10 11 10 14 0 14 -10 1 -9 4 2 13 8 7 16 19 18 27 2
8 8 17 13 18 5 2 7 8 3 13 -3 5 0 9 5 9 6 0 11 9 11 19 0 10 7 21 15 25 8 3
15 14 15 24 0 10 9 27 19 36 20 18 25 56 8 53 -13 -3 -63 -51 -61 -58 2 -3
-12 -22 -31 -42 -19 -20 -32 -37 -29 -37 3 0 -7 -12 -21 -27 -14 -15 -25 -31
-25 -35 0 -5 -7 -8 -15 -8 -8 0 -15 -7 -15 -15 0 -9 -7 -18 -15 -21 -8 -4 -15
-10 -15 -16 0 -14 -47 -58 -54 -50 -4 3 -4 0 -1 -9 6 -16 -28 -63 -39 -52 -3
3 -6 0 -6 -9 0 -8 -6 -15 -14 -15 -7 0 -12 7 -11 16 2 9 4 22 4 29 1 8 6 10
14 6 6 -4 3 2 -7 14 -19 22 -19 22 0 44 10 12 14 18 8 15 -7 -4 -15 0 -18 9
-3 8 -2 12 3 9 5 -3 12 -1 16 5 3 5 2 10 -2 10 -5 0 -8 22 -7 50 2 35 -1 48
-9 43 -7 -4 -6 1 2 10 10 13 10 17 1 17 -10 0 -10 3 0 15 7 8 8 15 3 15 -11 0
-11 36 0 46 4 4 7 12 7 18 0 6 -5 4 -11 -4 -8 -12 -10 -8 -7 17 3 19 0 30 -6
26 -5 -4 -7 1 -3 12 4 9 2 25 -5 33 -11 14 -10 15 7 9 19 -7 19 -6 3 7 -18 13
-26 32 -10 22 5 -3 9 1 9 9 0 8 -5 11 -10 8 -6 -4 -8 0 -4 9 3 9 1 20 -5 26
-6 6 -6 12 1 16 8 5 8 13 1 27 -6 10 -7 19 -3 19 4 0 1 5 -7 10 -8 5 -10 10
-4 10 6 0 11 7 11 15 0 8 -7 15 -16 15 -11 0 -11 3 5 16 10 8 14 13 7 10 -6
-4 -14 0 -16 6 -3 7 -6 11 -7 8z m410 -329 c0 -5 -10 -11 -22 -14 -22 -6 -22
-6 -4 8 23 17 26 18 26 6z m-190 -365 c0 -3 -4 -8 -10 -11 -5 -3 -10 -1 -10 4
0 6 5 11 10 11 6 0 10 -2 10 -4z"/>
</g>
</svg>
